<?xml version="1.0" encoding="UTF-8" standalone="no"?>
<!DOCTYPE svg PUBLIC "-//W3C//DTD SVG 1.1//EN"
 "http://www.w3.org/Graphics/SVG/1.1/DTD/svg11.dtd">
<!-- Generated by graphviz version 2.48.0 (20210717.1556)
 -->
<!-- Title: automaton Pages: 1 -->
<svg width="97pt" height="253pt"
 viewBox="0.00 0.00 96.85 253.09" xmlns="http://www.w3.org/2000/svg" xmlns:xlink="http://www.w3.org/1999/xlink">
<g id="graph0" class="graph" transform="scale(1 1) rotate(0) translate(4 249.09)">
<title>automaton</title>
<polygon fill="white" stroke="transparent" points="-4,4 -4,-249.09 92.85,-249.09 92.85,4 -4,4"/>
<!-- 1 -->
<g id="node1" class="node">
<title>1</title>
<ellipse fill="none" stroke="black" cx="46.85" cy="-226.24" rx="18.7" ry="18.7"/>
<text text-anchor="start" x="40.35" y="-222.54" font-family="Times New Roman,serif" font-size="14.00">s1</text>
</g>
<!-- 2 -->
<g id="node2" class="node">
<title>2</title>
<ellipse fill="none" stroke="black" cx="18.85" cy="-122.54" rx="18.7" ry="18.7"/>
<text text-anchor="start" x="12.35" y="-118.84" font-family="Times New Roman,serif" font-size="14.00">s2</text>
</g>
<!-- 1&#45;&gt;2 -->
<g id="1&#45;0&#45;2" class="edge">
<title>1&#45;&gt;2</title>
<path fill="none" stroke="black" d="M42.1,-207.99C37.77,-192.28 31.32,-168.84 26.31,-150.63"/>
<polygon fill="black" stroke="black" points="29.65,-149.59 23.62,-140.88 22.9,-151.45 29.65,-149.59"/>
<text text-anchor="start" x="43.85" y="-178.19" font-family="Times New Roman,serif" font-size="14.00">a</text>
<text text-anchor="start" x="36.85" y="-163.19" font-family="Times New Roman,serif" font-size="14.00">{1}</text>
</g>
<!-- 3 -->
<g id="node3" class="node">
<title>3</title>
<ellipse fill="none" stroke="black" cx="46.85" cy="-18.85" rx="18.7" ry="18.7"/>
<text text-anchor="start" x="40.35" y="-15.15" font-family="Times New Roman,serif" font-size="14.00">s3</text>
</g>
<!-- 2&#45;&gt;3 -->
<g id="2&#45;0&#45;3" class="edge">
<title>2&#45;&gt;3</title>
<path fill="none" stroke="black" d="M23.6,-104.29C27.92,-88.59 34.38,-65.14 39.39,-46.94"/>
<polygon fill="black" stroke="black" points="42.8,-47.75 42.08,-37.18 36.05,-45.9 42.8,-47.75"/>
<text text-anchor="start" x="43.35" y="-74.5" font-family="Times New Roman,serif" font-size="14.00">b</text>
<text text-anchor="start" x="36.85" y="-59.5" font-family="Times New Roman,serif" font-size="14.00">{1}</text>
</g>
<!-- 3&#45;&gt;1 -->
<g id="3&#45;0&#45;1" class="edge">
<title>3&#45;&gt;1</title>
<path fill="none" stroke="black" d="M54.17,-36.3C56.47,-42.28 58.7,-49.18 59.85,-55.7 70.13,-114.22 70.13,-130.87 59.85,-189.39 59.28,-192.65 58.43,-196.01 57.44,-199.29"/>
<polygon fill="black" stroke="black" points="54.12,-198.2 54.17,-208.79 60.74,-200.48 54.12,-198.2"/>
<text text-anchor="start" x="74.85" y="-126.34" font-family="Times New Roman,serif" font-size="14.00">c</text>
<text text-anchor="start" x="67.85" y="-111.34" font-family="Times New Roman,serif" font-size="14.00">{1}</text>
</g>
</g>
</svg>
