<?xml version="1.0" encoding="UTF-8" standalone="no"?>
<!DOCTYPE svg PUBLIC "-//W3C//DTD SVG 1.1//EN"
 "http://www.w3.org/Graphics/SVG/1.1/DTD/svg11.dtd">
<!-- Generated by graphviz version 2.48.0 (20210717.1556)
 -->
<!-- Title: automaton Pages: 1 -->
<svg width="130pt" height="253pt"
 viewBox="0.00 0.00 129.85 253.09" xmlns="http://www.w3.org/2000/svg" xmlns:xlink="http://www.w3.org/1999/xlink">
<g id="page0,1_graph0" class="graph" transform="scale(1 1) rotate(0) translate(4 249.09)">
<title>automaton</title>
<polygon fill="white" stroke="transparent" points="-4,4 -4,-249.09 125.85,-249.09 125.85,4 -4,4"/>
<!-- 1 -->
<g id="node1" class="node">
<title>1</title>
<ellipse fill="none" stroke="black" cx="73.85" cy="-226.24" rx="18.7" ry="18.7"/>
<text text-anchor="start" x="67.35" y="-222.54" font-family="Times New Roman,serif" font-size="14.00">s1</text>
</g>
<!-- 2 -->
<g id="node2" class="node">
<title>2</title>
<ellipse fill="none" stroke="black" cx="18.85" cy="-122.54" rx="18.7" ry="18.7"/>
<text text-anchor="start" x="12.35" y="-118.84" font-family="Times New Roman,serif" font-size="14.00">s2</text>
</g>
<!-- 1&#45;&gt;2 -->
<g id="1&#45;0&#45;2" class="edge">
<title>1&#45;&gt;2</title>
<path fill="none" stroke="black" d="M59.56,-213.57C52.45,-207.1 44.25,-198.53 38.85,-189.39 31.91,-177.66 27.18,-163.31 24.08,-151.01"/>
<polygon fill="black" stroke="black" points="27.49,-150.22 21.83,-141.25 20.66,-151.78 27.49,-150.22"/>
<text text-anchor="start" x="45.85" y="-178.19" font-family="Times New Roman,serif" font-size="14.00">a</text>
<text text-anchor="start" x="38.85" y="-163.19" font-family="Times New Roman,serif" font-size="14.00">{2}</text>
</g>
<!-- 3 -->
<g id="node3" class="node">
<title>3</title>
<ellipse fill="none" stroke="black" cx="73.85" cy="-18.85" rx="18.7" ry="18.7"/>
<text text-anchor="start" x="67.35" y="-15.15" font-family="Times New Roman,serif" font-size="14.00">s3</text>
</g>
<!-- 2&#45;&gt;3 -->
<g id="2&#45;0&#45;3" class="edge">
<title>2&#45;&gt;3</title>
<path fill="none" stroke="black" d="M21.83,-103.84C24.71,-90.02 29.97,-70.71 38.85,-55.7 42.48,-49.56 47.37,-43.68 52.35,-38.52"/>
<polygon fill="black" stroke="black" points="54.82,-41 59.56,-31.52 49.94,-35.97 54.82,-41"/>
<text text-anchor="start" x="45.35" y="-74.5" font-family="Times New Roman,serif" font-size="14.00">b</text>
<text text-anchor="start" x="38.85" y="-59.5" font-family="Times New Roman,serif" font-size="14.00">{2}</text>
</g>
<!-- 3&#45;&gt;1 -->
<g id="3&#45;0&#45;1" class="edge">
<title>3&#45;&gt;1</title>
<path fill="none" stroke="black" d="M73.85,-37.82C73.85,-73.72 73.85,-154.51 73.85,-197.35"/>
<polygon fill="black" stroke="black" points="70.35,-197.37 73.85,-207.37 77.35,-197.37 70.35,-197.37"/>
<text text-anchor="start" x="80.85" y="-126.34" font-family="Times New Roman,serif" font-size="14.00">c</text>
<text text-anchor="start" x="73.85" y="-111.34" font-family="Times New Roman,serif" font-size="14.00">{2}</text>
</g>
<!-- 3&#45;&gt;1 -->
<g id="3&#45;1&#45;1" class="edge">
<title>3&#45;&gt;1</title>
<path fill="none" stroke="black" d="M80.92,-36.45C83.32,-42.44 85.88,-49.31 87.85,-55.7 94.29,-76.61 96.39,-81.95 98.85,-103.7 103.16,-141.85 99.15,-152.69 87.85,-189.39 86.86,-192.59 85.73,-195.9 84.54,-199.16"/>
<polygon fill="black" stroke="black" points="81.22,-198.05 80.92,-208.64 87.76,-200.55 81.22,-198.05"/>
<text text-anchor="start" x="107.35" y="-126.34" font-family="Times New Roman,serif" font-size="14.00">d</text>
<text text-anchor="start" x="100.85" y="-111.34" font-family="Times New Roman,serif" font-size="14.00">{2}</text>
</g>
</g>
</svg>
