<?xml version="1.0" encoding="UTF-8" standalone="no"?>
<!DOCTYPE svg PUBLIC "-//W3C//DTD SVG 1.1//EN"
 "http://www.w3.org/Graphics/SVG/1.1/DTD/svg11.dtd">
<!-- Generated by graphviz version 2.48.0 (20210717.1556)
 -->
<!-- Title: automaton Pages: 1 -->
<svg width="133pt" height="253pt"
 viewBox="0.00 0.00 132.81 253.09" xmlns="http://www.w3.org/2000/svg" xmlns:xlink="http://www.w3.org/1999/xlink">
<g id="page0,1_graph0" class="graph" transform="scale(1 1) rotate(0) translate(4 249.09)">
<title>automaton</title>
<polygon fill="white" stroke="transparent" points="-4,4 -4,-249.09 128.81,-249.09 128.81,4 -4,4"/>
<!-- 1 -->
<g id="node1" class="node">
<title>1</title>
<ellipse fill="none" stroke="black" cx="64.81" cy="-226.24" rx="18.7" ry="18.7"/>
<text text-anchor="start" x="58.31" y="-222.54" font-family="Times New Roman,serif" font-size="14.00">s1</text>
</g>
<!-- 2 -->
<g id="node2" class="node">
<title>2</title>
<ellipse fill="none" stroke="black" cx="27.81" cy="-122.54" rx="18.7" ry="18.7"/>
<text text-anchor="start" x="21.31" y="-118.84" font-family="Times New Roman,serif" font-size="14.00">s2</text>
</g>
<!-- 1&#45;&gt;2 -->
<g id="1&#45;0&#45;2" class="edge">
<title>1&#45;&gt;2</title>
<path fill="none" stroke="black" d="M46.81,-220.12C32.33,-214.94 12.97,-205.39 3.81,-189.39 -3.99,-175.75 2.19,-159.11 10.23,-145.97"/>
<polygon fill="black" stroke="black" points="13.25,-147.76 15.95,-137.51 7.45,-143.84 13.25,-147.76"/>
<text text-anchor="start" x="10.81" y="-178.19" font-family="Times New Roman,serif" font-size="14.00">a</text>
<text text-anchor="start" x="3.81" y="-163.19" font-family="Times New Roman,serif" font-size="14.00">{3}</text>
</g>
<!-- 1&#45;&gt;2 -->
<g id="1&#45;1&#45;2" class="edge">
<title>1&#45;&gt;2</title>
<path fill="none" stroke="black" d="M56.51,-209.05C53.56,-202.97 50.35,-195.95 47.81,-189.39 43.02,-176.98 38.61,-162.91 35.16,-150.96"/>
<polygon fill="black" stroke="black" points="38.46,-149.79 32.39,-141.11 31.73,-151.69 38.46,-149.79"/>
<text text-anchor="start" x="54.81" y="-178.19" font-family="Times New Roman,serif" font-size="14.00">e</text>
<text text-anchor="start" x="47.81" y="-163.19" font-family="Times New Roman,serif" font-size="14.00">{3}</text>
</g>
<!-- 3 -->
<g id="node3" class="node">
<title>3</title>
<ellipse fill="none" stroke="black" cx="82.81" cy="-18.85" rx="18.7" ry="18.7"/>
<text text-anchor="start" x="76.31" y="-15.15" font-family="Times New Roman,serif" font-size="14.00">s3</text>
</g>
<!-- 2&#45;&gt;3 -->
<g id="2&#45;0&#45;3" class="edge">
<title>2&#45;&gt;3</title>
<path fill="none" stroke="black" d="M30.8,-103.84C33.68,-90.02 38.93,-70.71 47.81,-55.7 51.44,-49.56 56.34,-43.68 61.31,-38.52"/>
<polygon fill="black" stroke="black" points="63.78,-41 68.52,-31.52 58.91,-35.97 63.78,-41"/>
<text text-anchor="start" x="54.31" y="-74.5" font-family="Times New Roman,serif" font-size="14.00">b</text>
<text text-anchor="start" x="47.81" y="-59.5" font-family="Times New Roman,serif" font-size="14.00">{3}</text>
</g>
<!-- 3&#45;&gt;1 -->
<g id="3&#45;0&#45;1" class="edge">
<title>3&#45;&gt;1</title>
<path fill="none" stroke="black" d="M81.51,-37.68C79.21,-68.6 74.18,-134.13 68.81,-189.39 68.57,-191.96 68.29,-194.62 68.01,-197.29"/>
<polygon fill="black" stroke="black" points="64.52,-197.06 66.91,-207.38 71.47,-197.82 64.52,-197.06"/>
<text text-anchor="start" x="83.81" y="-126.34" font-family="Times New Roman,serif" font-size="14.00">c</text>
<text text-anchor="start" x="76.81" y="-111.34" font-family="Times New Roman,serif" font-size="14.00">{3}</text>
</g>
<!-- 3&#45;&gt;1 -->
<g id="3&#45;1&#45;1" class="edge">
<title>3&#45;&gt;1</title>
<path fill="none" stroke="black" d="M88.95,-36.78C96.68,-60.29 108.22,-104.14 101.81,-141.39 98.16,-162.63 88.02,-184.86 79.28,-201.09"/>
<polygon fill="black" stroke="black" points="76.18,-199.47 74.35,-209.9 82.29,-202.88 76.18,-199.47"/>
<text text-anchor="start" x="110.31" y="-126.34" font-family="Times New Roman,serif" font-size="14.00">d</text>
<text text-anchor="start" x="103.81" y="-111.34" font-family="Times New Roman,serif" font-size="14.00">{3}</text>
</g>
</g>
</svg>
