<?xml version="1.0" encoding="UTF-8" standalone="no"?>
<!DOCTYPE svg PUBLIC "-//W3C//DTD SVG 1.1//EN"
 "http://www.w3.org/Graphics/SVG/1.1/DTD/svg11.dtd">
<!-- Generated by graphviz version 7.0.6 (20230106.0513)
 -->
<!-- Title: automaton Pages: 1 -->
<svg width="97pt" height="253pt"
 viewBox="0.00 0.00 96.85 253.09" xmlns="http://www.w3.org/2000/svg" xmlns:xlink="http://www.w3.org/1999/xlink">
<g id="graph0" class="graph" transform="scale(1 1) rotate(0) translate(4 249.09)">
<title>automaton</title>
<polygon fill="white" stroke="none" points="-4,4 -4,-249.09 92.85,-249.09 92.85,4 -4,4"/>
<!-- 1 -->
<g id="node1" class="node">
<title>1</title>
<ellipse fill="none" stroke="black" cx="46.85" cy="-226.24" rx="18.7" ry="18.7"/>
<text text-anchor="start" x="40.35" y="-222.54" font-family="Times New Roman,serif" font-size="14.00">s1</text>
</g>
<!-- 2 -->
<g id="node2" class="node">
<title>2</title>
<ellipse fill="none" stroke="black" cx="18.85" cy="-122.54" rx="18.7" ry="18.7"/>
<text text-anchor="start" x="12.35" y="-118.84" font-family="Times New Roman,serif" font-size="14.00">s2</text>
</g>
<!-- 1&#45;&gt;2 -->
<g id="1&#45;0&#45;2" class="edge">
<title>1&#45;&gt;2</title>
<path fill="none" stroke="black" d="M42.1,-207.99C37.87,-192.65 31.62,-169.92 26.66,-151.91"/>
<polygon fill="black" stroke="black" points="30.05,-151.05 24.02,-142.34 23.3,-152.91 30.05,-151.05"/>
<text text-anchor="start" x="43.85" y="-178.19" font-family="Times New Roman,serif" font-size="14.00">a</text>
<text text-anchor="start" x="36.85" y="-163.19" font-family="Times New Roman,serif" font-size="14.00">{1}</text>
</g>
<!-- 3 -->
<g id="node3" class="node">
<title>3</title>
<ellipse fill="none" stroke="black" cx="46.85" cy="-18.85" rx="18.7" ry="18.7"/>
<text text-anchor="start" x="40.35" y="-15.15" font-family="Times New Roman,serif" font-size="14.00">s3</text>
</g>
<!-- 2&#45;&gt;3 -->
<g id="2&#45;0&#45;3" class="edge">
<title>2&#45;&gt;3</title>
<path fill="none" stroke="black" d="M23.6,-104.29C27.82,-88.95 34.08,-66.23 39.04,-48.22"/>
<polygon fill="black" stroke="black" points="42.39,-49.21 41.67,-38.64 35.64,-47.36 42.39,-49.21"/>
<text text-anchor="start" x="43.35" y="-74.5" font-family="Times New Roman,serif" font-size="14.00">b</text>
<text text-anchor="start" x="36.85" y="-59.5" font-family="Times New Roman,serif" font-size="14.00">{1}</text>
</g>
<!-- 3&#45;&gt;1 -->
<g id="3&#45;0&#45;1" class="edge">
<title>3&#45;&gt;1</title>
<path fill="none" stroke="black" d="M54.17,-36.3C56.47,-42.28 58.7,-49.18 59.85,-55.7 70.13,-114.22 70.13,-130.87 59.85,-189.39 59.35,-192.25 58.64,-195.17 57.81,-198.06"/>
<polygon fill="black" stroke="black" points="54.55,-196.77 54.66,-207.36 61.18,-199.01 54.55,-196.77"/>
<text text-anchor="start" x="74.85" y="-126.34" font-family="Times New Roman,serif" font-size="14.00">c</text>
<text text-anchor="start" x="67.85" y="-111.34" font-family="Times New Roman,serif" font-size="14.00">{1}</text>
</g>
</g>
</svg>
