<?xml version="1.0" encoding="UTF-8" standalone="no"?>
<!DOCTYPE svg PUBLIC "-//W3C//DTD SVG 1.1//EN"
 "http://www.w3.org/Graphics/SVG/1.1/DTD/svg11.dtd">
<!-- Generated by graphviz version 7.0.6 (20230106.0513)
 -->
<!-- Title: automaton Pages: 1 -->
<svg width="130pt" height="253pt"
 viewBox="0.00 0.00 129.85 253.09" xmlns="http://www.w3.org/2000/svg" xmlns:xlink="http://www.w3.org/1999/xlink">
<g id="graph0" class="graph" transform="scale(1 1) rotate(0) translate(4 249.09)">
<title>automaton</title>
<polygon fill="white" stroke="none" points="-4,4 -4,-249.09 125.85,-249.09 125.85,4 -4,4"/>
<!-- 1 -->
<g id="node1" class="node">
<title>1</title>
<ellipse fill="none" stroke="black" cx="73.85" cy="-226.24" rx="18.7" ry="18.7"/>
<text text-anchor="start" x="67.35" y="-222.54" font-family="Times New Roman,serif" font-size="14.00">s1</text>
</g>
<!-- 2 -->
<g id="node2" class="node">
<title>2</title>
<ellipse fill="none" stroke="black" cx="18.85" cy="-122.54" rx="18.7" ry="18.7"/>
<text text-anchor="start" x="12.35" y="-118.84" font-family="Times New Roman,serif" font-size="14.00">s2</text>
</g>
<!-- 1&#45;&gt;2 -->
<g id="1&#45;0&#45;2" class="edge">
<title>1&#45;&gt;2</title>
<path fill="none" stroke="black" d="M59.56,-213.57C52.45,-207.1 44.25,-198.53 38.85,-189.39 32.12,-178.02 27.47,-164.17 24.36,-152.12"/>
<polygon fill="black" stroke="black" points="27.85,-151.68 22.18,-142.73 21.03,-153.26 27.85,-151.68"/>
<text text-anchor="start" x="45.85" y="-178.19" font-family="Times New Roman,serif" font-size="14.00">a</text>
<text text-anchor="start" x="38.85" y="-163.19" font-family="Times New Roman,serif" font-size="14.00">{2}</text>
</g>
<!-- 3 -->
<g id="node3" class="node">
<title>3</title>
<ellipse fill="none" stroke="black" cx="73.85" cy="-18.85" rx="18.7" ry="18.7"/>
<text text-anchor="start" x="67.35" y="-15.15" font-family="Times New Roman,serif" font-size="14.00">s3</text>
</g>
<!-- 2&#45;&gt;3 -->
<g id="2&#45;0&#45;3" class="edge">
<title>2&#45;&gt;3</title>
<path fill="none" stroke="black" d="M21.83,-103.84C24.71,-90.02 29.97,-70.71 38.85,-55.7 42.31,-49.85 46.92,-44.23 51.65,-39.24"/>
<polygon fill="black" stroke="black" points="53.77,-42.07 58.48,-32.58 48.88,-37.06 53.77,-42.07"/>
<text text-anchor="start" x="45.35" y="-74.5" font-family="Times New Roman,serif" font-size="14.00">b</text>
<text text-anchor="start" x="38.85" y="-59.5" font-family="Times New Roman,serif" font-size="14.00">{2}</text>
</g>
<!-- 3&#45;&gt;1 -->
<g id="3&#45;0&#45;1" class="edge">
<title>3&#45;&gt;1</title>
<path fill="none" stroke="black" d="M73.85,-37.82C73.85,-73.34 73.85,-152.81 73.85,-195.98"/>
<polygon fill="black" stroke="black" points="70.35,-195.86 73.85,-205.86 77.35,-195.86 70.35,-195.86"/>
<text text-anchor="start" x="80.85" y="-126.34" font-family="Times New Roman,serif" font-size="14.00">c</text>
<text text-anchor="start" x="73.85" y="-111.34" font-family="Times New Roman,serif" font-size="14.00">{2}</text>
</g>
<!-- 3&#45;&gt;1 -->
<g id="3&#45;1&#45;1" class="edge">
<title>3&#45;&gt;1</title>
<path fill="none" stroke="black" d="M80.92,-36.45C83.32,-42.44 85.88,-49.31 87.85,-55.7 94.29,-76.61 96.39,-81.95 98.85,-103.7 103.16,-141.85 99.15,-152.69 87.85,-189.39 86.99,-192.19 86.01,-195.07 84.99,-197.94"/>
<polygon fill="black" stroke="black" points="81.74,-196.64 81.46,-207.23 88.28,-199.12 81.74,-196.64"/>
<text text-anchor="start" x="107.35" y="-126.34" font-family="Times New Roman,serif" font-size="14.00">d</text>
<text text-anchor="start" x="100.85" y="-111.34" font-family="Times New Roman,serif" font-size="14.00">{2}</text>
</g>
</g>
</svg>
