<?xml version="1.0" encoding="UTF-8" standalone="no"?>
<!DOCTYPE svg PUBLIC "-//W3C//DTD SVG 1.1//EN"
 "http://www.w3.org/Graphics/SVG/1.1/DTD/svg11.dtd">
<!-- Generated by graphviz version 7.0.6 (20230106.0513)
 -->
<!-- Title: diffautomaton Pages: 1 -->
<svg width="78pt" height="393pt"
 viewBox="0.00 0.00 77.85 392.79" xmlns="http://www.w3.org/2000/svg" xmlns:xlink="http://www.w3.org/1999/xlink">
<g id="graph0" class="graph" transform="scale(1 1) rotate(0) translate(4 388.79)">
<title>diffautomaton</title>
<polygon fill="white" stroke="none" points="-4,4 -4,-388.79 73.85,-388.79 73.85,4 -4,4"/>
<!-- 1 -->
<g id="node1" class="node">
<title>1</title>
<ellipse fill="#00cc00" stroke="black" cx="42.85" cy="-288.94" rx="18.72" ry="18.72"/>
<ellipse fill="none" stroke="black" cx="42.85" cy="-288.94" rx="22.7" ry="22.7"/>
<text text-anchor="start" x="36.35" y="-285.24" font-family="Times New Roman,serif" font-size="14.00" fill="#ffffff">s1</text>
</g>
<!-- 2 -->
<g id="node2" class="node">
<title>2</title>
<ellipse fill="#00cc00" stroke="black" cx="18.85" cy="-196.24" rx="18.7" ry="18.7"/>
<text text-anchor="start" x="12.35" y="-192.54" font-family="Times New Roman,serif" font-size="14.00" fill="#ffffff">s2</text>
</g>
<!-- 1&#45;&gt;2 -->
<g id="1&#45;0&#45;2" class="edge">
<title>1&#45;&gt;2</title>
<path fill="none" stroke="#00cc00" d="M37.28,-266.9C34.05,-254.68 29.93,-239.11 26.4,-225.79"/>
<polygon fill="#00cc00" stroke="#00cc00" points="29.83,-225.04 23.88,-216.27 23.06,-226.84 29.83,-225.04"/>
<text text-anchor="start" x="32.85" y="-236.89" font-family="Times New Roman,serif" font-size="14.00" fill="#00cc00">a</text>
</g>
<!-- 3 -->
<g id="node3" class="node">
<title>3</title>
<ellipse fill="#00cc00" stroke="black" cx="18.85" cy="-107.54" rx="18.7" ry="18.7"/>
<text text-anchor="start" x="12.35" y="-103.84" font-family="Times New Roman,serif" font-size="14.00" fill="#ffffff">s3</text>
</g>
<!-- 2&#45;&gt;3 -->
<g id="2&#45;0&#45;3" class="edge">
<title>2&#45;&gt;3</title>
<path fill="none" stroke="#00cc00" d="M18.85,-177.28C18.85,-165.89 18.85,-150.88 18.85,-137.8"/>
<polygon fill="#00cc00" stroke="#00cc00" points="22.35,-138 18.85,-128 15.35,-138 22.35,-138"/>
<text text-anchor="start" x="18.85" y="-148.19" font-family="Times New Roman,serif" font-size="14.00" fill="#00cc00">b</text>
</g>
<!-- 4 -->
<g id="node4" class="node">
<title>4</title>
<ellipse fill="#00cc00" stroke="black" cx="42.85" cy="-18.85" rx="18.7" ry="18.7"/>
<text text-anchor="start" x="36.35" y="-15.15" font-family="Times New Roman,serif" font-size="14.00" fill="#ffffff">s4</text>
</g>
<!-- 3&#45;&gt;4 -->
<g id="3&#45;0&#45;4" class="edge">
<title>3&#45;&gt;4</title>
<path fill="none" stroke="#00cc00" d="M23.71,-89C26.93,-77.37 31.23,-61.83 34.93,-48.44"/>
<polygon fill="#00cc00" stroke="#00cc00" points="38.3,-49.4 37.59,-38.83 31.55,-47.53 38.3,-49.4"/>
<text text-anchor="start" x="32.85" y="-59.5" font-family="Times New Roman,serif" font-size="14.00" fill="#00cc00">c</text>
</g>
<!-- 4&#45;&gt;1 -->
<g id="4&#45;0&#45;1" class="edge">
<title>4&#45;&gt;1</title>
<path fill="none" stroke="#00cc00" d="M44.19,-37.96C45.15,-51.83 46.35,-71.46 46.85,-88.7 48.48,-144.85 48.39,-158.94 46.85,-215.09 46.49,-228.04 45.78,-242.28 45.06,-254.7"/>
<polygon fill="#00cc00" stroke="#00cc00" points="41.58,-254.25 44.46,-264.44 48.57,-254.68 41.58,-254.25"/>
<text text-anchor="start" x="48.85" y="-148.19" font-family="Times New Roman,serif" font-size="14.00" fill="#00cc00">d</text>
</g>
<!-- __init1 -->
<g id="node5" class="node">
<title>__init1</title>
</g>
<!-- __init1&#45;&gt;1 -->
<g id="edge1" class="edge">
<title>__init1&#45;&gt;1</title>
<path fill="none" stroke="#00cc00" d="M42.85,-348.95C42.85,-341.37 42.85,-332.13 42.85,-323.24"/>
<polygon fill="#00cc00" stroke="#00cc00" points="46.35,-323.43 42.85,-313.43 39.35,-323.43 46.35,-323.43"/>
</g>
</g>
</svg>
