<?xml version="1.0" encoding="UTF-8" standalone="no"?>
<!DOCTYPE svg PUBLIC "-//W3C//DTD SVG 1.1//EN"
 "http://www.w3.org/Graphics/SVG/1.1/DTD/svg11.dtd">
<!-- Generated by graphviz version 7.0.6 (20230106.0513)
 -->
<!-- Title: diffautomaton Pages: 1 -->
<svg width="62pt" height="215pt"
 viewBox="0.00 0.00 62.00 215.39" xmlns="http://www.w3.org/2000/svg" xmlns:xlink="http://www.w3.org/1999/xlink">
<g id="graph0" class="graph" transform="scale(1 1) rotate(0) translate(4 211.39)">
<title>diffautomaton</title>
<polygon fill="white" stroke="none" points="-4,4 -4,-211.39 58,-211.39 58,4 -4,4"/>
<!-- 1 -->
<g id="node1" class="node">
<title>1</title>
<ellipse fill="#ff4040" stroke="black" cx="27" cy="-111.54" rx="18.72" ry="18.72"/>
<ellipse fill="none" stroke="black" cx="27" cy="-111.54" rx="22.7" ry="22.7"/>
<text text-anchor="start" x="20.5" y="-107.84" font-family="Times New Roman,serif" font-size="14.00" fill="#ffffff">s1</text>
</g>
<!-- 2 -->
<g id="node2" class="node">
<title>2</title>
<ellipse fill="#ff4040" stroke="black" cx="27" cy="-18.85" rx="18.7" ry="18.7"/>
<text text-anchor="start" x="20.5" y="-15.15" font-family="Times New Roman,serif" font-size="14.00" fill="#ffffff">s2</text>
</g>
<!-- 1&#45;&gt;2 -->
<g id="1&#45;0&#45;2" class="edge">
<title>1&#45;&gt;2</title>
<path fill="none" stroke="#ff4040" d="M18.77,-90.07C15.6,-79.8 13.13,-67.15 15,-55.7 15.44,-53.02 16.04,-50.27 16.76,-47.54"/>
<polygon fill="#ff4040" stroke="#ff4040" points="20.05,-48.74 19.66,-38.15 13.37,-46.67 20.05,-48.74"/>
<text text-anchor="start" x="15" y="-59.5" font-family="Times New Roman,serif" font-size="14.00" fill="#ff4040">a</text>
</g>
<!-- 2&#45;&gt;1 -->
<g id="2&#45;0&#45;1" class="edge">
<title>2&#45;&gt;1</title>
<path fill="none" stroke="#ff4040" d="M27,-37.94C27,-49.22 27,-64.07 27,-77.4"/>
<polygon fill="#ff4040" stroke="#ff4040" points="23.5,-77.08 27,-87.08 30.5,-77.08 23.5,-77.08"/>
<text text-anchor="start" x="27" y="-59.5" font-family="Times New Roman,serif" font-size="14.00" fill="#ff4040">d</text>
</g>
<!-- __init1 -->
<g id="node3" class="node">
<title>__init1</title>
</g>
<!-- __init1&#45;&gt;1 -->
<g id="edge1" class="edge">
<title>__init1&#45;&gt;1</title>
<path fill="none" stroke="#ff4040" d="M27,-171.56C27,-163.97 27,-154.74 27,-145.84"/>
<polygon fill="#ff4040" stroke="#ff4040" points="30.5,-146.03 27,-136.03 23.5,-146.03 30.5,-146.03"/>
</g>
</g>
</svg>
