<?xml version="1.0" encoding="UTF-8" standalone="no"?>
<!DOCTYPE svg PUBLIC "-//W3C//DTD SVG 1.1//EN"
 "http://www.w3.org/Graphics/SVG/1.1/DTD/svg11.dtd">
<!-- Generated by graphviz version 7.0.6 (20230106.0513)
 -->
<!-- Title: diffautomaton Pages: 1 -->
<svg width="54pt" height="180pt"
 viewBox="0.00 0.00 53.70 180.39" xmlns="http://www.w3.org/2000/svg" xmlns:xlink="http://www.w3.org/1999/xlink">
<g id="graph0" class="graph" transform="scale(1 1) rotate(0) translate(4 176.39)">
<title>diffautomaton</title>
<polygon fill="white" stroke="none" points="-4,4 -4,-176.39 49.7,-176.39 49.7,4 -4,4"/>
<!-- 1 -->
<g id="node1" class="node">
<title>1</title>
<ellipse fill="#ff4040" stroke="black" cx="22.85" cy="-111.54" rx="18.72" ry="18.72"/>
<ellipse fill="none" stroke="black" cx="22.85" cy="-111.54" rx="22.7" ry="22.7"/>
<text text-anchor="start" x="16.35" y="-107.84" font-family="Times New Roman,serif" font-size="14.00" fill="#ffffff">s1</text>
</g>
<!-- 2 -->
<g id="node2" class="node">
<title>2</title>
<ellipse fill="#ff4040" stroke="black" cx="22.85" cy="-18.85" rx="18.7" ry="18.7"/>
<text text-anchor="start" x="16.35" y="-15.15" font-family="Times New Roman,serif" font-size="14.00" fill="#ffffff">s2</text>
</g>
<!-- 1&#45;&gt;2 -->
<g id="1&#45;0&#45;2" class="edge">
<title>1&#45;&gt;2</title>
<path fill="none" stroke="#ff4040" d="M14.61,-90.07C11.44,-79.8 8.98,-67.15 10.85,-55.7 11.28,-53.02 11.89,-50.27 12.61,-47.54"/>
<polygon fill="#ff4040" stroke="#ff4040" points="15.9,-48.74 15.51,-38.15 9.21,-46.67 15.9,-48.74"/>
<text text-anchor="start" x="10.85" y="-59.5" font-family="Times New Roman,serif" font-size="14.00" fill="#ff4040">a</text>
</g>
<!-- 2&#45;&gt;1 -->
<g id="2&#45;0&#45;1" class="edge">
<title>2&#45;&gt;1</title>
<path fill="none" stroke="#ff4040" d="M22.85,-37.94C22.85,-49.22 22.85,-64.07 22.85,-77.4"/>
<polygon fill="#ff4040" stroke="#ff4040" points="19.35,-77.08 22.85,-87.08 26.35,-77.08 19.35,-77.08"/>
<text text-anchor="start" x="22.85" y="-59.5" font-family="Times New Roman,serif" font-size="14.00" fill="#ff4040">d</text>
</g>
<!-- __init1 -->
<g id="node3" class="node">
<title>__init1</title>
</g>
<!-- __init1&#45;&gt;1 -->
<g id="edge1" class="edge">
<title>__init1&#45;&gt;1</title>
<path fill="none" stroke="#ff4040" d="M22.85,-171.22C22.85,-169.72 22.85,-158.34 22.85,-146"/>
<polygon fill="#ff4040" stroke="#ff4040" points="26.35,-146.16 22.85,-136.16 19.35,-146.16 26.35,-146.16"/>
</g>
</g>
</svg>
