<?xml version="1.0" encoding="UTF-8" standalone="no"?>
<!DOCTYPE svg PUBLIC "-//W3C//DTD SVG 1.1//EN"
 "http://www.w3.org/Graphics/SVG/1.1/DTD/svg11.dtd">
<!-- Generated by graphviz version 7.0.6 (20230106.0513)
 -->
<!-- Title: diffautomaton Pages: 1 -->
<svg width="120pt" height="358pt"
 viewBox="0.00 0.00 120.30 357.79" xmlns="http://www.w3.org/2000/svg" xmlns:xlink="http://www.w3.org/1999/xlink">
<g id="graph0" class="graph" transform="scale(1 1) rotate(0) translate(4 353.79)">
<title>diffautomaton</title>
<polygon fill="white" stroke="none" points="-4,4 -4,-353.79 116.3,-353.79 116.3,4 -4,4"/>
<!-- 1 -->
<g id="node1" class="node">
<title>1</title>
<ellipse fill="none" stroke="black" cx="89.46" cy="-288.94" rx="18.72" ry="18.72"/>
<ellipse fill="none" stroke="black" cx="89.46" cy="-288.94" rx="22.7" ry="22.7"/>
<text text-anchor="start" x="82.96" y="-285.24" font-family="Times New Roman,serif" font-size="14.00">s1</text>
</g>
<!-- 3 -->
<g id="node3" class="node">
<title>3</title>
<ellipse fill="none" stroke="black" cx="65.46" cy="-196.24" rx="18.7" ry="18.7"/>
<text text-anchor="start" x="58.96" y="-192.54" font-family="Times New Roman,serif" font-size="14.00">s3</text>
</g>
<!-- 1&#45;&gt;3 -->
<g id="1&#45;0&#45;3" class="edge">
<title>1&#45;&gt;3</title>
<path fill="none" stroke="black" d="M83.89,-266.9C80.66,-254.68 76.54,-239.11 73.01,-225.79"/>
<polygon fill="black" stroke="black" points="76.43,-225.04 70.49,-216.27 69.67,-226.84 76.43,-225.04"/>
<text text-anchor="start" x="79.46" y="-236.89" font-family="Times New Roman,serif" font-size="14.00" fill="#000000">a</text>
</g>
<!-- 2 -->
<g id="node2" class="node">
<title>2</title>
<ellipse fill="none" stroke="black" cx="65.46" cy="-18.85" rx="18.7" ry="18.7"/>
<text text-anchor="start" x="58.96" y="-15.15" font-family="Times New Roman,serif" font-size="14.00">s2</text>
</g>
<!-- 2&#45;&gt;1 -->
<g id="2&#45;0&#45;1" class="edge">
<title>2&#45;&gt;1</title>
<path fill="none" stroke="black" d="M73.97,-35.71C80.77,-49.33 89.74,-69.7 93.46,-88.7 104.71,-146.24 99.31,-214.91 94.38,-254.76"/>
<polygon fill="black" stroke="black" points="90.91,-254.28 93.07,-264.66 97.85,-255.2 90.91,-254.28"/>
<text text-anchor="start" x="100.46" y="-148.19" font-family="Times New Roman,serif" font-size="14.00" fill="#000000">d</text>
</g>
<!-- 3&#45;&gt;2 -->
<g id="3&#45;1&#45;2" class="edge">
<title>3&#45;&gt;2</title>
<path fill="none" stroke="#ff4040" d="M50.81,-184.22C35.89,-171.99 13.69,-150.73 4.46,-126.39 -1.49,-110.73 -1.49,-104.36 4.46,-88.7 12.03,-68.73 28.33,-50.84 42.18,-38.3"/>
<polygon fill="#ff4040" stroke="#ff4040" points="44.37,-41.04 49.66,-31.86 39.8,-35.73 44.37,-41.04"/>
<text text-anchor="start" x="4.46" y="-103.84" font-family="Times New Roman,serif" font-size="14.00" fill="#ff4040">[skip]</text>
</g>
<!-- 4 -->
<g id="node4" class="node">
<title>4</title>
<ellipse fill="#00cc00" stroke="black" cx="65.46" cy="-107.54" rx="18.7" ry="18.7"/>
<text text-anchor="start" x="58.96" y="-103.84" font-family="Times New Roman,serif" font-size="14.00" fill="#ffffff">s4</text>
</g>
<!-- 3&#45;&gt;4 -->
<g id="3&#45;0&#45;4" class="edge">
<title>3&#45;&gt;4</title>
<path fill="none" stroke="#00cc00" d="M65.46,-177.28C65.46,-165.89 65.46,-150.88 65.46,-137.8"/>
<polygon fill="#00cc00" stroke="#00cc00" points="68.96,-138 65.46,-128 61.96,-138 68.96,-138"/>
<text text-anchor="start" x="65.46" y="-148.19" font-family="Times New Roman,serif" font-size="14.00" fill="#00cc00">b</text>
</g>
<!-- 4&#45;&gt;2 -->
<g id="4&#45;0&#45;2" class="edge">
<title>4&#45;&gt;2</title>
<path fill="none" stroke="#00cc00" d="M65.46,-88.58C65.46,-77.19 65.46,-62.19 65.46,-49.1"/>
<polygon fill="#00cc00" stroke="#00cc00" points="68.96,-49.3 65.46,-39.3 61.96,-49.3 68.96,-49.3"/>
<text text-anchor="start" x="65.46" y="-59.5" font-family="Times New Roman,serif" font-size="14.00" fill="#00cc00">c</text>
</g>
<!-- __init1 -->
<g id="node5" class="node">
<title>__init1</title>
</g>
<!-- __init1&#45;&gt;1 -->
<g id="edge1" class="edge">
<title>__init1&#45;&gt;1</title>
<path fill="none" stroke="black" d="M89.46,-348.62C89.46,-347.11 89.46,-335.73 89.46,-323.39"/>
<polygon fill="black" stroke="black" points="92.96,-323.55 89.46,-313.55 85.96,-323.55 92.96,-323.55"/>
</g>
</g>
</svg>
