<?xml version="1.0" encoding="UTF-8" standalone="no"?>
<!DOCTYPE svg PUBLIC "-//W3C//DTD SVG 1.1//EN"
 "http://www.w3.org/Graphics/SVG/1.1/DTD/svg11.dtd">
<!-- Generated by graphviz version 7.0.6 (20230106.0513)
 -->
<!-- Title: diffautomaton Pages: 1 -->
<svg width="140pt" height="393pt"
 viewBox="0.00 0.00 139.85 392.79" xmlns="http://www.w3.org/2000/svg" xmlns:xlink="http://www.w3.org/1999/xlink">
<g id="graph0" class="graph" transform="scale(1 1) rotate(0) translate(4 388.79)">
<title>diffautomaton</title>
<polygon fill="white" stroke="none" points="-4,4 -4,-388.79 135.85,-388.79 135.85,4 -4,4"/>
<!-- 1 -->
<g id="node1" class="node">
<title>1</title>
<ellipse fill="none" stroke="black" cx="104.85" cy="-288.94" rx="18.72" ry="18.72"/>
<ellipse fill="none" stroke="black" cx="104.85" cy="-288.94" rx="22.7" ry="22.7"/>
<text text-anchor="start" x="98.35" y="-285.24" font-family="Times New Roman,serif" font-size="14.00">s1</text>
</g>
<!-- 2 -->
<g id="node2" class="node">
<title>2</title>
<ellipse fill="none" stroke="black" cx="73.85" cy="-196.24" rx="18.7" ry="18.7"/>
<text text-anchor="start" x="67.35" y="-192.54" font-family="Times New Roman,serif" font-size="14.00">s2</text>
</g>
<!-- 1&#45;&gt;2 -->
<g id="1&#45;0&#45;2" class="edge">
<title>1&#45;&gt;2</title>
<path fill="none" stroke="black" d="M97.66,-266.9C93.38,-254.39 87.91,-238.38 83.29,-224.86"/>
<polygon fill="black" stroke="black" points="86.69,-223.98 80.14,-215.65 80.06,-226.25 86.69,-223.98"/>
<text text-anchor="start" x="91.85" y="-236.89" font-family="Times New Roman,serif" font-size="14.00" fill="#000000">a</text>
</g>
<!-- 3 -->
<g id="node3" class="node">
<title>3</title>
<ellipse fill="#00cc00" stroke="black" cx="18.85" cy="-107.54" rx="18.7" ry="18.7"/>
<text text-anchor="start" x="12.35" y="-103.84" font-family="Times New Roman,serif" font-size="14.00" fill="#ffffff">s3</text>
</g>
<!-- 2&#45;&gt;3 -->
<g id="2&#45;0&#45;3" class="edge">
<title>2&#45;&gt;3</title>
<path fill="none" stroke="#00cc00" d="M64.27,-180.14C56.04,-167.17 44.01,-148.21 34.41,-133.07"/>
<polygon fill="#00cc00" stroke="#00cc00" points="37.63,-131.61 29.31,-125.04 31.72,-135.36 37.63,-131.61"/>
<text text-anchor="start" x="49.85" y="-148.19" font-family="Times New Roman,serif" font-size="14.00" fill="#00cc00">b</text>
</g>
<!-- 4 -->
<g id="node4" class="node">
<title>4</title>
<ellipse fill="none" stroke="black" cx="73.85" cy="-18.85" rx="18.7" ry="18.7"/>
<text text-anchor="start" x="67.35" y="-15.15" font-family="Times New Roman,serif" font-size="14.00">s4</text>
</g>
<!-- 2&#45;&gt;4 -->
<g id="2&#45;1&#45;4" class="edge">
<title>2&#45;&gt;4</title>
<path fill="none" stroke="#ff4040" d="M73.85,-177.13C73.85,-146.86 73.85,-85.7 73.85,-49.21"/>
<polygon fill="#ff4040" stroke="#ff4040" points="77.35,-49.37 73.85,-39.37 70.35,-49.37 77.35,-49.37"/>
<text text-anchor="start" x="73.85" y="-103.84" font-family="Times New Roman,serif" font-size="14.00" fill="#ff4040">[skip]</text>
</g>
<!-- 3&#45;&gt;4 -->
<g id="3&#45;0&#45;4" class="edge">
<title>3&#45;&gt;4</title>
<path fill="none" stroke="#00cc00" d="M28.43,-91.44C36.66,-78.47 48.68,-59.52 58.29,-44.37"/>
<polygon fill="#00cc00" stroke="#00cc00" points="60.98,-46.66 63.38,-36.35 55.07,-42.91 60.98,-46.66"/>
<text text-anchor="start" x="49.85" y="-59.5" font-family="Times New Roman,serif" font-size="14.00" fill="#00cc00">c</text>
</g>
<!-- 4&#45;&gt;1 -->
<g id="4&#45;0&#45;1" class="edge">
<title>4&#45;&gt;1</title>
<path fill="none" stroke="black" d="M84.54,-34.54C93.55,-47.9 105.78,-68.56 110.85,-88.7 125.23,-145.84 117.82,-215.12 111.25,-255.11"/>
<polygon fill="black" stroke="black" points="107.83,-254.35 109.57,-264.8 114.73,-255.55 107.83,-254.35"/>
<text text-anchor="start" x="119.85" y="-148.19" font-family="Times New Roman,serif" font-size="14.00" fill="#000000">d</text>
</g>
<!-- __init1 -->
<g id="node5" class="node">
<title>__init1</title>
</g>
<!-- __init1&#45;&gt;1 -->
<g id="edge1" class="edge">
<title>__init1&#45;&gt;1</title>
<path fill="none" stroke="black" d="M104.85,-348.95C104.85,-341.37 104.85,-332.13 104.85,-323.24"/>
<polygon fill="black" stroke="black" points="108.35,-323.43 104.85,-313.43 101.35,-323.43 108.35,-323.43"/>
</g>
</g>
</svg>
