<?xml version="1.0" encoding="UTF-8" standalone="no"?>
<!DOCTYPE svg PUBLIC "-//W3C//DTD SVG 1.1//EN"
 "http://www.w3.org/Graphics/SVG/1.1/DTD/svg11.dtd">
<!-- Generated by graphviz version 7.0.6 (20230106.0513)
 -->
<!-- Title: diffautomaton Pages: 1 -->
<svg width="87pt" height="358pt"
 viewBox="0.00 0.00 86.92 357.79" xmlns="http://www.w3.org/2000/svg" xmlns:xlink="http://www.w3.org/1999/xlink">
<g id="graph0" class="graph" transform="scale(1 1) rotate(0) translate(4 353.79)">
<title>diffautomaton</title>
<polygon fill="white" stroke="none" points="-4,4 -4,-353.79 82.92,-353.79 82.92,4 -4,4"/>
<!-- 1 -->
<g id="node1" class="node">
<title>1</title>
<ellipse fill="none" stroke="black" cx="35.92" cy="-288.94" rx="18.72" ry="18.72"/>
<ellipse fill="none" stroke="black" cx="35.92" cy="-288.94" rx="22.7" ry="22.7"/>
<text text-anchor="start" x="29.42" y="-285.24" font-family="Times New Roman,serif" font-size="14.00">s1</text>
</g>
<!-- 2 -->
<g id="node2" class="node">
<title>2</title>
<ellipse fill="none" stroke="black" cx="35.92" cy="-18.85" rx="18.7" ry="18.7"/>
<text text-anchor="start" x="29.42" y="-15.15" font-family="Times New Roman,serif" font-size="14.00">s2</text>
</g>
<!-- 1&#45;&gt;2 -->
<g id="1&#45;0&#45;2" class="edge">
<title>1&#45;&gt;2</title>
<path fill="none" stroke="#ff4040" d="M26.01,-268.11C19.43,-253.78 11.38,-233.74 7.92,-215.09 -2.33,-159.86 -2.86,-143.83 7.92,-88.7 10.79,-74 16.81,-58.49 22.54,-45.91"/>
<polygon fill="#ff4040" stroke="#ff4040" points="25.6,-47.61 26.75,-37.08 19.29,-44.6 25.6,-47.61"/>
<text text-anchor="start" x="0.92" y="-148.19" font-family="Times New Roman,serif" font-size="14.00" fill="#ff4040">a</text>
</g>
<!-- 3 -->
<g id="node3" class="node">
<title>3</title>
<ellipse fill="#00cc00" stroke="black" cx="35.92" cy="-196.24" rx="18.7" ry="18.7"/>
<text text-anchor="start" x="29.42" y="-192.54" font-family="Times New Roman,serif" font-size="14.00" fill="#ffffff">s3</text>
</g>
<!-- 1&#45;&gt;3 -->
<g id="1&#45;1&#45;3" class="edge">
<title>1&#45;&gt;3</title>
<path fill="none" stroke="#00cc00" d="M35.92,-265.98C35.92,-254.22 35.92,-239.57 35.92,-226.82"/>
<polygon fill="#00cc00" stroke="#00cc00" points="39.42,-226.85 35.92,-216.85 32.42,-226.85 39.42,-226.85"/>
<text text-anchor="start" x="35.92" y="-236.89" font-family="Times New Roman,serif" font-size="14.00" fill="#00cc00">a</text>
</g>
<!-- 2&#45;&gt;1 -->
<g id="2&#45;0&#45;1" class="edge">
<title>2&#45;&gt;1</title>
<path fill="none" stroke="black" d="M44.44,-35.71C51.23,-49.33 60.2,-69.7 63.92,-88.7 74.7,-143.83 74.17,-159.86 63.92,-215.09 61.24,-229.52 55.82,-244.77 50.46,-257.57"/>
<polygon fill="black" stroke="black" points="47.25,-256.16 46.43,-266.72 53.66,-258.98 47.25,-256.16"/>
<text text-anchor="start" x="70.92" y="-148.19" font-family="Times New Roman,serif" font-size="14.00" fill="#000000">d</text>
</g>
<!-- 4 -->
<g id="node4" class="node">
<title>4</title>
<ellipse fill="#00cc00" stroke="black" cx="35.92" cy="-107.54" rx="18.7" ry="18.7"/>
<text text-anchor="start" x="29.42" y="-103.84" font-family="Times New Roman,serif" font-size="14.00" fill="#ffffff">s4</text>
</g>
<!-- 3&#45;&gt;4 -->
<g id="3&#45;0&#45;4" class="edge">
<title>3&#45;&gt;4</title>
<path fill="none" stroke="#00cc00" d="M35.92,-177.28C35.92,-165.89 35.92,-150.88 35.92,-137.8"/>
<polygon fill="#00cc00" stroke="#00cc00" points="39.42,-138 35.92,-128 32.42,-138 39.42,-138"/>
<text text-anchor="start" x="35.92" y="-148.19" font-family="Times New Roman,serif" font-size="14.00" fill="#00cc00">b</text>
</g>
<!-- 4&#45;&gt;2 -->
<g id="4&#45;0&#45;2" class="edge">
<title>4&#45;&gt;2</title>
<path fill="none" stroke="#00cc00" d="M35.92,-88.58C35.92,-77.19 35.92,-62.19 35.92,-49.1"/>
<polygon fill="#00cc00" stroke="#00cc00" points="39.42,-49.3 35.92,-39.3 32.42,-49.3 39.42,-49.3"/>
<text text-anchor="start" x="35.92" y="-59.5" font-family="Times New Roman,serif" font-size="14.00" fill="#00cc00">c</text>
</g>
<!-- __init1 -->
<g id="node5" class="node">
<title>__init1</title>
</g>
<!-- __init1&#45;&gt;1 -->
<g id="edge1" class="edge">
<title>__init1&#45;&gt;1</title>
<path fill="none" stroke="black" d="M35.92,-348.62C35.92,-347.11 35.92,-335.73 35.92,-323.39"/>
<polygon fill="black" stroke="black" points="39.42,-323.55 35.92,-313.55 32.42,-323.55 39.42,-323.55"/>
</g>
</g>
</svg>
