<?xml version="1.0" encoding="UTF-8" standalone="no"?>
<!DOCTYPE svg PUBLIC "-//W3C//DTD SVG 1.1//EN"
 "http://www.w3.org/Graphics/SVG/1.1/DTD/svg11.dtd">
<!-- Generated by graphviz version 2.48.0 (20210717.1556)
 -->
<!-- Title: automaton Pages: 1 -->
<svg width="188pt" height="253pt"
 viewBox="0.00 0.00 188.06 253.09" xmlns="http://www.w3.org/2000/svg" xmlns:xlink="http://www.w3.org/1999/xlink">
<g id="graph0" class="graph" transform="scale(1 1) rotate(0) translate(4 249.09)">
<title>automaton</title>
<polygon fill="white" stroke="transparent" points="-4,4 -4,-249.09 184.06,-249.09 184.06,4 -4,4"/>
<!-- 1 -->
<g id="node1" class="node">
<title>1</title>
<ellipse fill="none" stroke="black" cx="87.06" cy="-226.24" rx="18.7" ry="18.7"/>
<text text-anchor="start" x="80.56" y="-222.54" font-family="Times New Roman,serif" font-size="14.00">s1</text>
</g>
<!-- 2 -->
<g id="node2" class="node">
<title>2</title>
<ellipse fill="none" stroke="black" cx="48.06" cy="-122.54" rx="18.7" ry="18.7"/>
<text text-anchor="start" x="41.56" y="-118.84" font-family="Times New Roman,serif" font-size="14.00">s2</text>
</g>
<!-- 1&#45;&gt;2 -->
<g id="1&#45;0&#45;2" class="edge">
<title>1&#45;&gt;2</title>
<path fill="none" stroke="black" d="M68.31,-222.94C48.74,-219.43 19.01,-210.72 5.06,-189.39 -2.24,-178.24 -0.59,-171.47 5.06,-159.39 9.03,-150.92 16.1,-143.74 23.38,-138.09"/>
<polygon fill="black" stroke="black" points="25.65,-140.77 31.84,-132.17 21.64,-135.04 25.65,-140.77"/>
<text text-anchor="start" x="22.56" y="-178.19" font-family="Times New Roman,serif" font-size="14.00">a</text>
<text text-anchor="start" x="5.06" y="-163.19" font-family="Times New Roman,serif" font-size="14.00">{1,2,3}</text>
</g>
<!-- 1&#45;&gt;2 -->
<g id="1&#45;1&#45;2" class="edge">
<title>1&#45;&gt;2</title>
<path fill="none" stroke="black" d="M78.86,-209.01C75.92,-202.93 72.69,-195.91 70.06,-189.39 65.02,-176.85 60.17,-162.66 56.32,-150.68"/>
<polygon fill="black" stroke="black" points="59.55,-149.29 53.2,-140.8 52.87,-151.39 59.55,-149.29"/>
<text text-anchor="start" x="77.06" y="-178.19" font-family="Times New Roman,serif" font-size="14.00">e</text>
<text text-anchor="start" x="70.06" y="-163.19" font-family="Times New Roman,serif" font-size="14.00">{3}</text>
</g>
<!-- 3 -->
<g id="node3" class="node">
<title>3</title>
<ellipse fill="none" stroke="black" cx="105.06" cy="-18.85" rx="18.7" ry="18.7"/>
<text text-anchor="start" x="98.56" y="-15.15" font-family="Times New Roman,serif" font-size="14.00">s3</text>
</g>
<!-- 2&#45;&gt;3 -->
<g id="2&#45;0&#45;3" class="edge">
<title>2&#45;&gt;3</title>
<path fill="none" stroke="black" d="M44,-103.88C41.77,-89.91 40.88,-70.38 49.06,-55.7 55.41,-44.31 67.05,-35.99 78.08,-30.25"/>
<polygon fill="black" stroke="black" points="79.9,-33.27 87.47,-25.86 76.93,-26.93 79.9,-33.27"/>
<text text-anchor="start" x="66.06" y="-74.5" font-family="Times New Roman,serif" font-size="14.00">b</text>
<text text-anchor="start" x="49.06" y="-59.5" font-family="Times New Roman,serif" font-size="14.00">{1,2,3}</text>
</g>
<!-- 3&#45;&gt;1 -->
<g id="3&#45;0&#45;1" class="edge">
<title>3&#45;&gt;1</title>
<path fill="none" stroke="black" d="M103.76,-37.68C101.46,-68.6 96.43,-134.13 91.06,-189.39 90.81,-191.96 90.54,-194.62 90.26,-197.29"/>
<polygon fill="black" stroke="black" points="86.77,-197.06 89.16,-207.38 93.72,-197.82 86.77,-197.06"/>
<text text-anchor="start" x="116.56" y="-126.34" font-family="Times New Roman,serif" font-size="14.00">c</text>
<text text-anchor="start" x="99.06" y="-111.34" font-family="Times New Roman,serif" font-size="14.00">{1,2,3}</text>
</g>
<!-- 3&#45;&gt;1 -->
<g id="3&#45;1&#45;1" class="edge">
<title>3&#45;&gt;1</title>
<path fill="none" stroke="black" d="M115.92,-34.4C131.53,-57.15 157.18,-102.59 145.06,-141.39 137.56,-165.42 120.5,-188.63 106.81,-204.51"/>
<polygon fill="black" stroke="black" points="104.07,-202.32 100.03,-212.12 109.29,-206.98 104.07,-202.32"/>
<text text-anchor="start" x="160.56" y="-126.34" font-family="Times New Roman,serif" font-size="14.00">d</text>
<text text-anchor="start" x="149.06" y="-111.34" font-family="Times New Roman,serif" font-size="14.00">{2,3}</text>
</g>
</g>
</svg>
