<?xml version="1.0" encoding="UTF-8" standalone="no"?>
<!DOCTYPE svg PUBLIC "-//W3C//DTD SVG 1.1//EN"
 "http://www.w3.org/Graphics/SVG/1.1/DTD/svg11.dtd">
<!-- Generated by graphviz version 7.0.6 (20230106.0513)
 -->
<!-- Title: automaton Pages: 1 -->
<svg width="133pt" height="253pt"
 viewBox="0.00 0.00 132.81 253.09" xmlns="http://www.w3.org/2000/svg" xmlns:xlink="http://www.w3.org/1999/xlink">
<g id="graph0" class="graph" transform="scale(1 1) rotate(0) translate(4 249.09)">
<title>automaton</title>
<polygon fill="white" stroke="none" points="-4,4 -4,-249.09 128.81,-249.09 128.81,4 -4,4"/>
<!-- 1 -->
<g id="node1" class="node">
<title>1</title>
<ellipse fill="none" stroke="black" cx="64.81" cy="-226.24" rx="18.7" ry="18.7"/>
<text text-anchor="start" x="58.31" y="-222.54" font-family="Times New Roman,serif" font-size="14.00">s1</text>
</g>
<!-- 2 -->
<g id="node2" class="node">
<title>2</title>
<ellipse fill="none" stroke="black" cx="27.81" cy="-122.54" rx="18.7" ry="18.7"/>
<text text-anchor="start" x="21.31" y="-118.84" font-family="Times New Roman,serif" font-size="14.00">s2</text>
</g>
<!-- 1&#45;&gt;2 -->
<g id="1&#45;0&#45;2" class="edge">
<title>1&#45;&gt;2</title>
<path fill="none" stroke="black" d="M46.8,-220.12C32.33,-214.94 12.96,-205.39 3.81,-189.39 -3.85,-176.01 1.95,-159.75 9.77,-146.73"/>
<polygon fill="black" stroke="black" points="12.44,-149.02 15.1,-138.77 6.63,-145.13 12.44,-149.02"/>
<text text-anchor="start" x="10.81" y="-178.19" font-family="Times New Roman,serif" font-size="14.00">a</text>
<text text-anchor="start" x="3.81" y="-163.19" font-family="Times New Roman,serif" font-size="14.00">{3}</text>
</g>
<!-- 1&#45;&gt;2 -->
<g id="1&#45;1&#45;2" class="edge">
<title>1&#45;&gt;2</title>
<path fill="none" stroke="black" d="M56.5,-209.05C53.56,-202.97 50.34,-195.95 47.81,-189.39 43.16,-177.36 38.87,-163.76 35.47,-152.05"/>
<polygon fill="black" stroke="black" points="38.88,-151.24 32.79,-142.57 32.14,-153.14 38.88,-151.24"/>
<text text-anchor="start" x="54.81" y="-178.19" font-family="Times New Roman,serif" font-size="14.00">e</text>
<text text-anchor="start" x="47.81" y="-163.19" font-family="Times New Roman,serif" font-size="14.00">{3}</text>
</g>
<!-- 3 -->
<g id="node3" class="node">
<title>3</title>
<ellipse fill="none" stroke="black" cx="82.81" cy="-18.85" rx="18.7" ry="18.7"/>
<text text-anchor="start" x="76.31" y="-15.15" font-family="Times New Roman,serif" font-size="14.00">s3</text>
</g>
<!-- 2&#45;&gt;3 -->
<g id="2&#45;0&#45;3" class="edge">
<title>2&#45;&gt;3</title>
<path fill="none" stroke="black" d="M30.79,-103.84C33.67,-90.02 38.93,-70.71 47.81,-55.7 51.27,-49.85 55.88,-44.23 60.61,-39.24"/>
<polygon fill="black" stroke="black" points="62.73,-42.07 67.44,-32.58 57.84,-37.06 62.73,-42.07"/>
<text text-anchor="start" x="54.31" y="-74.5" font-family="Times New Roman,serif" font-size="14.00">b</text>
<text text-anchor="start" x="47.81" y="-59.5" font-family="Times New Roman,serif" font-size="14.00">{3}</text>
</g>
<!-- 3&#45;&gt;1 -->
<g id="3&#45;0&#45;1" class="edge">
<title>3&#45;&gt;1</title>
<path fill="none" stroke="black" d="M81.49,-37.93C79.18,-68.94 74.16,-134.27 68.81,-189.39 68.6,-191.59 68.37,-193.86 68.13,-196.15"/>
<polygon fill="black" stroke="black" points="64.67,-195.56 67.07,-205.88 71.63,-196.32 64.67,-195.56"/>
<text text-anchor="start" x="83.81" y="-126.34" font-family="Times New Roman,serif" font-size="14.00">c</text>
<text text-anchor="start" x="76.81" y="-111.34" font-family="Times New Roman,serif" font-size="14.00">{3}</text>
</g>
<!-- 3&#45;&gt;1 -->
<g id="3&#45;1&#45;1" class="edge">
<title>3&#45;&gt;1</title>
<path fill="none" stroke="black" d="M88.95,-36.78C96.68,-60.29 108.21,-104.14 101.81,-141.39 98.23,-162.23 88.39,-184.03 79.76,-200.18"/>
<polygon fill="black" stroke="black" points="76.89,-198.14 75.08,-208.58 83.01,-201.55 76.89,-198.14"/>
<text text-anchor="start" x="110.31" y="-126.34" font-family="Times New Roman,serif" font-size="14.00">d</text>
<text text-anchor="start" x="103.81" y="-111.34" font-family="Times New Roman,serif" font-size="14.00">{3}</text>
</g>
</g>
</svg>
