<?xml version="1.0" encoding="UTF-8" standalone="no"?>
<!DOCTYPE svg PUBLIC "-//W3C//DTD SVG 1.1//EN"
 "http://www.w3.org/Graphics/SVG/1.1/DTD/svg11.dtd">
<!-- Generated by graphviz version 7.0.6 (20230106.0513)
 -->
<!-- Title: automaton Pages: 1 -->
<svg width="188pt" height="253pt"
 viewBox="0.00 0.00 188.06 253.09" xmlns="http://www.w3.org/2000/svg" xmlns:xlink="http://www.w3.org/1999/xlink">
<g id="graph0" class="graph" transform="scale(1 1) rotate(0) translate(4 249.09)">
<title>automaton</title>
<polygon fill="white" stroke="none" points="-4,4 -4,-249.09 184.06,-249.09 184.06,4 -4,4"/>
<!-- 1 -->
<g id="node1" class="node">
<title>1</title>
<ellipse fill="none" stroke="black" cx="87.06" cy="-226.24" rx="18.7" ry="18.7"/>
<text text-anchor="start" x="80.56" y="-222.54" font-family="Times New Roman,serif" font-size="14.00">s1</text>
</g>
<!-- 2 -->
<g id="node2" class="node">
<title>2</title>
<ellipse fill="none" stroke="black" cx="48.06" cy="-122.54" rx="18.7" ry="18.7"/>
<text text-anchor="start" x="41.56" y="-118.84" font-family="Times New Roman,serif" font-size="14.00">s2</text>
</g>
<!-- 1&#45;&gt;2 -->
<g id="1&#45;0&#45;2" class="edge">
<title>1&#45;&gt;2</title>
<path fill="none" stroke="black" d="M68.31,-222.94C48.74,-219.43 19.01,-210.72 5.06,-189.39 -2.24,-178.24 -0.59,-171.47 5.06,-159.39 8.95,-151.1 15.8,-144.06 22.9,-138.46"/>
<polygon fill="black" stroke="black" points="24.44,-141.66 30.6,-133.04 20.41,-135.94 24.44,-141.66"/>
<text text-anchor="start" x="22.56" y="-178.19" font-family="Times New Roman,serif" font-size="14.00">a</text>
<text text-anchor="start" x="5.06" y="-163.19" font-family="Times New Roman,serif" font-size="14.00">{1,2,3}</text>
</g>
<!-- 1&#45;&gt;2 -->
<g id="1&#45;1&#45;2" class="edge">
<title>1&#45;&gt;2</title>
<path fill="none" stroke="black" d="M78.86,-209.01C75.92,-202.93 72.69,-195.91 70.06,-189.39 65.17,-177.23 60.46,-163.52 56.67,-151.77"/>
<polygon fill="black" stroke="black" points="60.01,-150.73 53.66,-142.25 53.33,-152.84 60.01,-150.73"/>
<text text-anchor="start" x="77.06" y="-178.19" font-family="Times New Roman,serif" font-size="14.00">e</text>
<text text-anchor="start" x="70.06" y="-163.19" font-family="Times New Roman,serif" font-size="14.00">{3}</text>
</g>
<!-- 3 -->
<g id="node3" class="node">
<title>3</title>
<ellipse fill="none" stroke="black" cx="105.06" cy="-18.85" rx="18.7" ry="18.7"/>
<text text-anchor="start" x="98.56" y="-15.15" font-family="Times New Roman,serif" font-size="14.00">s3</text>
</g>
<!-- 2&#45;&gt;3 -->
<g id="2&#45;0&#45;3" class="edge">
<title>2&#45;&gt;3</title>
<path fill="none" stroke="black" d="M44,-103.88C41.77,-89.91 40.88,-70.38 49.06,-55.7 55.22,-44.65 66.35,-36.5 77.08,-30.78"/>
<polygon fill="black" stroke="black" points="78.57,-33.95 86.11,-26.51 75.57,-27.62 78.57,-33.95"/>
<text text-anchor="start" x="66.06" y="-74.5" font-family="Times New Roman,serif" font-size="14.00">b</text>
<text text-anchor="start" x="49.06" y="-59.5" font-family="Times New Roman,serif" font-size="14.00">{1,2,3}</text>
</g>
<!-- 3&#45;&gt;1 -->
<g id="3&#45;0&#45;1" class="edge">
<title>3&#45;&gt;1</title>
<path fill="none" stroke="black" d="M103.74,-37.93C101.44,-68.94 96.41,-134.27 91.06,-189.39 90.85,-191.59 90.62,-193.86 90.38,-196.15"/>
<polygon fill="black" stroke="black" points="86.92,-195.56 89.32,-205.88 93.88,-196.32 86.92,-195.56"/>
<text text-anchor="start" x="116.56" y="-126.34" font-family="Times New Roman,serif" font-size="14.00">c</text>
<text text-anchor="start" x="99.06" y="-111.34" font-family="Times New Roman,serif" font-size="14.00">{1,2,3}</text>
</g>
<!-- 3&#45;&gt;1 -->
<g id="3&#45;1&#45;1" class="edge">
<title>3&#45;&gt;1</title>
<path fill="none" stroke="black" d="M115.92,-34.4C131.53,-57.15 157.18,-102.59 145.06,-141.39 137.7,-164.98 121.12,-187.78 107.56,-203.63"/>
<polygon fill="black" stroke="black" points="105.06,-201.18 101.03,-210.98 110.29,-205.83 105.06,-201.18"/>
<text text-anchor="start" x="160.56" y="-126.34" font-family="Times New Roman,serif" font-size="14.00">d</text>
<text text-anchor="start" x="149.06" y="-111.34" font-family="Times New Roman,serif" font-size="14.00">{2,3}</text>
</g>
</g>
</svg>
