<?xml version="1.0" encoding="UTF-8" standalone="no"?>
<!DOCTYPE svg PUBLIC "-//W3C//DTD SVG 1.1//EN"
 "http://www.w3.org/Graphics/SVG/1.1/DTD/svg11.dtd">
<!-- Generated by graphviz version 7.0.6 (20230106.0513)
 -->
<!-- Title: diffautomaton Pages: 1 -->
<svg width="82pt" height="304pt"
 viewBox="0.00 0.00 81.85 304.09" xmlns="http://www.w3.org/2000/svg" xmlns:xlink="http://www.w3.org/1999/xlink">
<g id="graph0" class="graph" transform="scale(1 1) rotate(0) translate(4 300.09)">
<title>diffautomaton</title>
<polygon fill="white" stroke="none" points="-4,4 -4,-300.09 77.85,-300.09 77.85,4 -4,4"/>
<!-- 1 -->
<g id="node1" class="node">
<title>1</title>
<ellipse fill="#ff4040" stroke="black" cx="46.85" cy="-200.24" rx="18.72" ry="18.72"/>
<ellipse fill="none" stroke="black" cx="46.85" cy="-200.24" rx="22.7" ry="22.7"/>
<text text-anchor="start" x="40.35" y="-196.54" font-family="Times New Roman,serif" font-size="14.00" fill="#ffffff">s1</text>
</g>
<!-- 2 -->
<g id="node2" class="node">
<title>2</title>
<ellipse fill="#ff4040" stroke="black" cx="18.85" cy="-107.54" rx="18.7" ry="18.7"/>
<text text-anchor="start" x="12.35" y="-103.84" font-family="Times New Roman,serif" font-size="14.00" fill="#ffffff">s2</text>
</g>
<!-- 1&#45;&gt;2 -->
<g id="1&#45;0&#45;2" class="edge">
<title>1&#45;&gt;2</title>
<path fill="none" stroke="#ff4040" d="M40.35,-178.21C36.52,-165.78 31.61,-149.89 27.46,-136.43"/>
<polygon fill="#ff4040" stroke="#ff4040" points="30.92,-135.79 24.63,-127.26 24.23,-137.85 30.92,-135.79"/>
<text text-anchor="start" x="34.85" y="-148.19" font-family="Times New Roman,serif" font-size="14.00" fill="#ff4040">a</text>
</g>
<!-- 3 -->
<g id="node3" class="node">
<title>3</title>
<ellipse fill="#ff4040" stroke="black" cx="45.85" cy="-18.85" rx="18.7" ry="18.7"/>
<text text-anchor="start" x="39.35" y="-15.15" font-family="Times New Roman,serif" font-size="14.00" fill="#ffffff">s3</text>
</g>
<!-- 2&#45;&gt;3 -->
<g id="2&#45;0&#45;3" class="edge">
<title>2&#45;&gt;3</title>
<path fill="none" stroke="#ff4040" d="M24.18,-89.42C27.86,-77.62 32.82,-61.67 37.07,-48.02"/>
<polygon fill="#ff4040" stroke="#ff4040" points="40.35,-49.27 39.98,-38.68 33.67,-47.19 40.35,-49.27"/>
<text text-anchor="start" x="34.85" y="-59.5" font-family="Times New Roman,serif" font-size="14.00" fill="#ff4040">b</text>
</g>
<!-- 3&#45;&gt;1 -->
<g id="3&#45;0&#45;1" class="edge">
<title>3&#45;&gt;1</title>
<path fill="none" stroke="#ff4040" d="M46.44,-37.72C46.61,-43.46 46.77,-49.84 46.85,-55.7 47.38,-93.59 47.28,-137.11 47.11,-166.2"/>
<polygon fill="#ff4040" stroke="#ff4040" points="43.61,-165.82 47.05,-175.84 50.61,-165.86 43.61,-165.82"/>
<text text-anchor="start" x="47.85" y="-103.84" font-family="Times New Roman,serif" font-size="14.00" fill="#ff4040">c</text>
</g>
<!-- __init1 -->
<g id="node4" class="node">
<title>__init1</title>
</g>
<!-- __init1&#45;&gt;1 -->
<g id="edge1" class="edge">
<title>__init1&#45;&gt;1</title>
<path fill="none" stroke="#ff4040" d="M46.85,-260.26C46.85,-252.67 46.85,-243.43 46.85,-234.54"/>
<polygon fill="#ff4040" stroke="#ff4040" points="50.35,-234.73 46.85,-224.73 43.35,-234.73 50.35,-234.73"/>
</g>
</g>
</svg>
