<?xml version="1.0" encoding="UTF-8" standalone="no"?>
<!DOCTYPE svg PUBLIC "-//W3C//DTD SVG 1.1//EN"
 "http://www.w3.org/Graphics/SVG/1.1/DTD/svg11.dtd">
<!-- Generated by graphviz version 7.0.6 (20230106.0513)
 -->
<!-- Title: diffautomaton Pages: 1 -->
<svg width="106pt" height="304pt"
 viewBox="0.00 0.00 105.70 304.09" xmlns="http://www.w3.org/2000/svg" xmlns:xlink="http://www.w3.org/1999/xlink">
<g id="graph0" class="graph" transform="scale(1 1) rotate(0) translate(4 300.09)">
<title>diffautomaton</title>
<polygon fill="white" stroke="none" points="-4,4 -4,-300.09 101.7,-300.09 101.7,4 -4,4"/>
<!-- 1 -->
<g id="node1" class="node">
<title>1</title>
<ellipse fill="#00cc00" stroke="black" cx="37.85" cy="-200.24" rx="18.72" ry="18.72"/>
<ellipse fill="none" stroke="black" cx="37.85" cy="-200.24" rx="22.7" ry="22.7"/>
<text text-anchor="start" x="31.35" y="-196.54" font-family="Times New Roman,serif" font-size="14.00" fill="#ffffff">s1</text>
</g>
<!-- 2 -->
<g id="node2" class="node">
<title>2</title>
<ellipse fill="#00cc00" stroke="black" cx="37.85" cy="-107.54" rx="18.7" ry="18.7"/>
<text text-anchor="start" x="31.35" y="-103.84" font-family="Times New Roman,serif" font-size="14.00" fill="#ffffff">s2</text>
</g>
<!-- 1&#45;&gt;2 -->
<g id="1&#45;0&#45;2" class="edge">
<title>1&#45;&gt;2</title>
<path fill="none" stroke="#00cc00" d="M37.85,-177.29C37.85,-165.53 37.85,-150.88 37.85,-138.13"/>
<polygon fill="#00cc00" stroke="#00cc00" points="41.35,-138.15 37.85,-128.15 34.35,-138.15 41.35,-138.15"/>
<text text-anchor="start" x="37.85" y="-148.19" font-family="Times New Roman,serif" font-size="14.00" fill="#00cc00">a</text>
</g>
<!-- 3 -->
<g id="node3" class="node">
<title>3</title>
<ellipse fill="#00cc00" stroke="black" cx="18.85" cy="-18.85" rx="18.7" ry="18.7"/>
<text text-anchor="start" x="12.35" y="-15.15" font-family="Times New Roman,serif" font-size="14.00" fill="#ffffff">s3</text>
</g>
<!-- 2&#45;&gt;3 -->
<g id="2&#45;0&#45;3" class="edge">
<title>2&#45;&gt;3</title>
<path fill="none" stroke="#00cc00" d="M34,-89C31.45,-77.37 28.05,-61.83 25.11,-48.44"/>
<polygon fill="#00cc00" stroke="#00cc00" points="28.57,-47.86 23.01,-38.85 21.73,-49.36 28.57,-47.86"/>
<text text-anchor="start" x="29.85" y="-59.5" font-family="Times New Roman,serif" font-size="14.00" fill="#00cc00">b</text>
</g>
<!-- 4 -->
<g id="node4" class="node">
<title>4</title>
<ellipse fill="#00cc00" stroke="black" cx="78.85" cy="-18.85" rx="18.7" ry="18.7"/>
<text text-anchor="start" x="72.35" y="-15.15" font-family="Times New Roman,serif" font-size="14.00" fill="#ffffff">s4</text>
</g>
<!-- 2&#45;&gt;4 -->
<g id="2&#45;1&#45;4" class="edge">
<title>2&#45;&gt;4</title>
<path fill="none" stroke="#00cc00" d="M45.56,-90.24C51.36,-77.96 59.45,-60.88 66.19,-46.61"/>
<polygon fill="#00cc00" stroke="#00cc00" points="69.27,-48.28 70.38,-37.75 62.95,-45.29 69.27,-48.28"/>
<text text-anchor="start" x="60.85" y="-59.5" font-family="Times New Roman,serif" font-size="14.00" fill="#00cc00">d</text>
</g>
<!-- 3&#45;&gt;1 -->
<g id="3&#45;0&#45;1" class="edge">
<title>3&#45;&gt;1</title>
<path fill="none" stroke="#00cc00" d="M12.5,-36.6C5.38,-57.71 -4.3,-95.02 2.85,-126.39 6.36,-141.83 13.58,-157.81 20.55,-170.86"/>
<polygon fill="#00cc00" stroke="#00cc00" points="17.34,-172.29 25.28,-179.31 23.45,-168.87 17.34,-172.29"/>
<text text-anchor="start" x="2.85" y="-103.84" font-family="Times New Roman,serif" font-size="14.00" fill="#00cc00">c</text>
</g>
<!-- 4&#45;&gt;1 -->
<g id="4&#45;0&#45;1" class="edge">
<title>4&#45;&gt;1</title>
<path fill="none" stroke="#00cc00" d="M76.77,-37.74C75.63,-47.48 74.18,-59.76 72.85,-70.7 69.83,-95.46 71.92,-102.2 65.85,-126.39 62.28,-140.62 56.72,-155.85 51.49,-168.68"/>
<polygon fill="#00cc00" stroke="#00cc00" points="48.28,-167.29 47.63,-177.86 54.73,-170 48.28,-167.29"/>
<text text-anchor="start" x="71.85" y="-103.84" font-family="Times New Roman,serif" font-size="14.00" fill="#00cc00">e</text>
</g>
<!-- __init1 -->
<g id="node5" class="node">
<title>__init1</title>
</g>
<!-- __init1&#45;&gt;1 -->
<g id="edge1" class="edge">
<title>__init1&#45;&gt;1</title>
<path fill="none" stroke="#00cc00" d="M37.85,-260.26C37.85,-252.67 37.85,-243.43 37.85,-234.54"/>
<polygon fill="#00cc00" stroke="#00cc00" points="41.35,-234.73 37.85,-224.73 34.35,-234.73 41.35,-234.73"/>
</g>
</g>
</svg>
